name C:\Users\u0101727\Documents\MyRepositories\upper-imu-dc\OpenSim\subject0\MA\ResultsMA\grid_4nodes_9dim\angles_2.mot
datacolumns 10
datarows 52
range 250.01000000 250.52000000
endheader 
time	clav_prot	clav_elev	scapula_abduction	scapula_elevation	scapula_upward_rot	scapula_winging	plane_elv	shoulder_elv	axial_rot	
        250.01000000	        -50.00000000	         10.00000000	         -3.33333333	          3.33333333	         30.00000000	        -20.00000000	         30.00000000	         26.66666667	        -90.00000000	
        250.02000000	        -38.33333333	         10.00000000	         -3.33333333	          3.33333333	         30.00000000	        -20.00000000	         30.00000000	         26.66666667	        -90.00000000	
        250.03000000	        -26.66666667	         10.00000000	         -3.33333333	          3.33333333	         30.00000000	        -20.00000000	         30.00000000	         26.66666667	        -90.00000000	
        250.04000000	        -15.00000000	         10.00000000	         -3.33333333	          3.33333333	         30.00000000	        -20.00000000	         30.00000000	         26.66666667	        -90.00000000	
        250.05000000	        -50.00000000	         20.00000000	         -3.33333333	          3.33333333	         30.00000000	        -20.00000000	         30.00000000	         26.66666667	        -90.00000000	
        250.06000000	        -38.33333333	         20.00000000	         -3.33333333	          3.33333333	         30.00000000	        -20.00000000	         30.00000000	         26.66666667	        -90.00000000	
        250.07000000	        -26.66666667	         20.00000000	         -3.33333333	          3.33333333	         30.00000000	        -20.00000000	         30.00000000	         26.66666667	        -90.00000000	
        250.08000000	        -15.00000000	         20.00000000	         -3.33333333	          3.33333333	         30.00000000	        -20.00000000	         30.00000000	         26.66666667	        -90.00000000	
        250.09000000	        -50.00000000	        -10.00000000	         15.00000000	          3.33333333	         30.00000000	        -20.00000000	         30.00000000	         26.66666667	        -90.00000000	
        250.10000000	        -38.33333333	        -10.00000000	         15.00000000	          3.33333333	         30.00000000	        -20.00000000	         30.00000000	         26.66666667	        -90.00000000	
        250.11000000	        -26.66666667	        -10.00000000	         15.00000000	          3.33333333	         30.00000000	        -20.00000000	         30.00000000	         26.66666667	        -90.00000000	
        250.12000000	        -15.00000000	        -10.00000000	         15.00000000	          3.33333333	         30.00000000	        -20.00000000	         30.00000000	         26.66666667	        -90.00000000	
        250.13000000	        -50.00000000	          0.00000000	         15.00000000	          3.33333333	         30.00000000	        -20.00000000	         30.00000000	         26.66666667	        -90.00000000	
        250.14000000	        -38.33333333	          0.00000000	         15.00000000	          3.33333333	         30.00000000	        -20.00000000	         30.00000000	         26.66666667	        -90.00000000	
        250.15000000	        -26.66666667	          0.00000000	         15.00000000	          3.33333333	         30.00000000	        -20.00000000	         30.00000000	         26.66666667	        -90.00000000	
        250.16000000	        -15.00000000	          0.00000000	         15.00000000	          3.33333333	         30.00000000	        -20.00000000	         30.00000000	         26.66666667	        -90.00000000	
        250.17000000	        -50.00000000	         10.00000000	         15.00000000	          3.33333333	         30.00000000	        -20.00000000	         30.00000000	         26.66666667	        -90.00000000	
        250.18000000	        -38.33333333	         10.00000000	         15.00000000	          3.33333333	         30.00000000	        -20.00000000	         30.00000000	         26.66666667	        -90.00000000	
        250.19000000	        -26.66666667	         10.00000000	         15.00000000	          3.33333333	         30.00000000	        -20.00000000	         30.00000000	         26.66666667	        -90.00000000	
        250.20000000	        -15.00000000	         10.00000000	         15.00000000	          3.33333333	         30.00000000	        -20.00000000	         30.00000000	         26.66666667	        -90.00000000	
        250.21000000	        -50.00000000	         20.00000000	         15.00000000	          3.33333333	         30.00000000	        -20.00000000	         30.00000000	         26.66666667	        -90.00000000	
        250.22000000	        -38.33333333	         20.00000000	         15.00000000	          3.33333333	         30.00000000	        -20.00000000	         30.00000000	         26.66666667	        -90.00000000	
        250.23000000	        -26.66666667	         20.00000000	         15.00000000	          3.33333333	         30.00000000	        -20.00000000	         30.00000000	         26.66666667	        -90.00000000	
        250.24000000	        -15.00000000	         20.00000000	         15.00000000	          3.33333333	         30.00000000	        -20.00000000	         30.00000000	         26.66666667	        -90.00000000	
        250.25000000	        -50.00000000	        -10.00000000	        -40.00000000	         10.00000000	         30.00000000	        -20.00000000	         30.00000000	         26.66666667	        -90.00000000	
        250.26000000	        -38.33333333	        -10.00000000	        -40.00000000	         10.00000000	         30.00000000	        -20.00000000	         30.00000000	         26.66666667	        -90.00000000	
        250.27000000	        -26.66666667	        -10.00000000	        -40.00000000	         10.00000000	         30.00000000	        -20.00000000	         30.00000000	         26.66666667	        -90.00000000	
        250.28000000	        -15.00000000	        -10.00000000	        -40.00000000	         10.00000000	         30.00000000	        -20.00000000	         30.00000000	         26.66666667	        -90.00000000	
        250.29000000	        -50.00000000	          0.00000000	        -40.00000000	         10.00000000	         30.00000000	        -20.00000000	         30.00000000	         26.66666667	        -90.00000000	
        250.30000000	        -38.33333333	          0.00000000	        -40.00000000	         10.00000000	         30.00000000	        -20.00000000	         30.00000000	         26.66666667	        -90.00000000	
        250.31000000	        -26.66666667	          0.00000000	        -40.00000000	         10.00000000	         30.00000000	        -20.00000000	         30.00000000	         26.66666667	        -90.00000000	
        250.32000000	        -15.00000000	          0.00000000	        -40.00000000	         10.00000000	         30.00000000	        -20.00000000	         30.00000000	         26.66666667	        -90.00000000	
        250.33000000	        -50.00000000	         10.00000000	        -40.00000000	         10.00000000	         30.00000000	        -20.00000000	         30.00000000	         26.66666667	        -90.00000000	
        250.34000000	        -38.33333333	         10.00000000	        -40.00000000	         10.00000000	         30.00000000	        -20.00000000	         30.00000000	         26.66666667	        -90.00000000	
        250.35000000	        -26.66666667	         10.00000000	        -40.00000000	         10.00000000	         30.00000000	        -20.00000000	         30.00000000	         26.66666667	        -90.00000000	
        250.36000000	        -15.00000000	         10.00000000	        -40.00000000	         10.00000000	         30.00000000	        -20.00000000	         30.00000000	         26.66666667	        -90.00000000	
        250.37000000	        -50.00000000	         20.00000000	        -40.00000000	         10.00000000	         30.00000000	        -20.00000000	         30.00000000	         26.66666667	        -90.00000000	
        250.38000000	        -38.33333333	         20.00000000	        -40.00000000	         10.00000000	         30.00000000	        -20.00000000	         30.00000000	         26.66666667	        -90.00000000	
        250.39000000	        -26.66666667	         20.00000000	        -40.00000000	         10.00000000	         30.00000000	        -20.00000000	         30.00000000	         26.66666667	        -90.00000000	
        250.40000000	        -15.00000000	         20.00000000	        -40.00000000	         10.00000000	         30.00000000	        -20.00000000	         30.00000000	         26.66666667	        -90.00000000	
        250.41000000	        -50.00000000	        -10.00000000	        -21.66666667	         10.00000000	         30.00000000	        -20.00000000	         30.00000000	         26.66666667	        -90.00000000	
        250.42000000	        -38.33333333	        -10.00000000	        -21.66666667	         10.00000000	         30.00000000	        -20.00000000	         30.00000000	         26.66666667	        -90.00000000	
        250.43000000	        -26.66666667	        -10.00000000	        -21.66666667	         10.00000000	         30.00000000	        -20.00000000	         30.00000000	         26.66666667	        -90.00000000	
        250.44000000	        -15.00000000	        -10.00000000	        -21.66666667	         10.00000000	         30.00000000	        -20.00000000	         30.00000000	         26.66666667	        -90.00000000	
        250.45000000	        -50.00000000	          0.00000000	        -21.66666667	         10.00000000	         30.00000000	        -20.00000000	         30.00000000	         26.66666667	        -90.00000000	
        250.46000000	        -38.33333333	          0.00000000	        -21.66666667	         10.00000000	         30.00000000	        -20.00000000	         30.00000000	         26.66666667	        -90.00000000	
        250.47000000	        -26.66666667	          0.00000000	        -21.66666667	         10.00000000	         30.00000000	        -20.00000000	         30.00000000	         26.66666667	        -90.00000000	
        250.48000000	        -15.00000000	          0.00000000	        -21.66666667	         10.00000000	         30.00000000	        -20.00000000	         30.00000000	         26.66666667	        -90.00000000	
        250.49000000	        -50.00000000	         10.00000000	        -21.66666667	         10.00000000	         30.00000000	        -20.00000000	         30.00000000	         26.66666667	        -90.00000000	
        250.50000000	        -38.33333333	         10.00000000	        -21.66666667	         10.00000000	         30.00000000	        -20.00000000	         30.00000000	         26.66666667	        -90.00000000	
        250.51000000	        -26.66666667	         10.00000000	        -21.66666667	         10.00000000	         30.00000000	        -20.00000000	         30.00000000	         26.66666667	        -90.00000000	
        250.52000000	        -15.00000000	         10.00000000	        -21.66666667	         10.00000000	         30.00000000	        -20.00000000	         30.00000000	         26.66666667	        -90.00000000	
